<?xml version="1.0" encoding="UTF-8" standalone="no"?>
<!DOCTYPE svg PUBLIC "-//W3C//DTD SVG 1.1//EN"
 "http://www.w3.org/Graphics/SVG/1.1/DTD/svg11.dtd">
<!-- Generated by graphviz version 2.38.0 (20140413.2041)
 -->
<!-- Title: %71 Pages: 1 -->
<svg width="543pt" height="2298pt"
 viewBox="0.00 0.00 543.00 2298.37" xmlns="http://www.w3.org/2000/svg" xmlns:xlink="http://www.w3.org/1999/xlink">
<g id="graph0" class="graph" transform="scale(1 1) rotate(0) translate(4 2294.37)">
<title>%71</title>
<polygon fill="white" stroke="none" points="-4,4 -4,-2294.37 539,-2294.37 539,4 -4,4"/>
<!-- __init -->
<g id="node1" class="node"><title>__init</title>
<ellipse fill="black" stroke="black" cx="30" cy="-2288.57" rx="1.8" ry="1.8"/>
</g>
<!-- {X} -->
<g id="node10" class="node"><title>{X}</title>
<ellipse fill="none" stroke="black" cx="30" cy="-2223.78" rx="25.9954" ry="25.9954"/>
<text text-anchor="middle" x="30" y="-2220.08" font-family="Times New Roman,serif" font-size="14.00">{X}</text>
</g>
<!-- __init&#45;&gt;{X} -->
<g id="edge1" class="edge"><title>__init&#45;&gt;{X}</title>
<path fill="none" stroke="black" d="M30,-2286.48C30,-2283.02 30,-2271.81 30,-2259.87"/>
<polygon fill="black" stroke="black" points="33.5001,-2259.82 30,-2249.82 26.5001,-2259.82 33.5001,-2259.82"/>
</g>
<!-- {0, X} -->
<g id="node2" class="node"><title>{0, X}</title>
<ellipse fill="none" stroke="black" cx="89" cy="-2111.68" rx="35.194" ry="35.194"/>
<text text-anchor="middle" x="89" y="-2107.98" font-family="Times New Roman,serif" font-size="14.00">{0, X}</text>
</g>
<!-- {1, X} -->
<g id="node3" class="node"><title>{1, X}</title>
<ellipse fill="none" stroke="black" cx="368" cy="-1990.49" rx="35.194" ry="35.194"/>
<text text-anchor="middle" x="368" y="-1986.79" font-family="Times New Roman,serif" font-size="14.00">{1, X}</text>
</g>
<!-- {0, X}&#45;&gt;{1, X} -->
<g id="edge2" class="edge"><title>{0, X}&#45;&gt;{1, X}</title>
<path fill="none" stroke="black" d="M121.005,-2097.01C171.745,-2075.33 270.626,-2033.09 326.662,-2009.15"/>
<polygon fill="black" stroke="black" points="328.119,-2012.33 335.94,-2005.18 325.369,-2005.89 328.119,-2012.33"/>
<text text-anchor="middle" x="249.5" y="-2047.38" font-family="Times New Roman,serif" font-size="14.00">0</text>
</g>
<!-- {0, 1, X} -->
<g id="node11" class="node"><title>{0, 1, X}</title>
<ellipse fill="none" stroke="black" cx="138" cy="-1591.61" rx="44.393" ry="44.393"/>
<text text-anchor="middle" x="138" y="-1587.91" font-family="Times New Roman,serif" font-size="14.00">{0, 1, X}</text>
</g>
<!-- {0, X}&#45;&gt;{0, 1, X} -->
<g id="edge3" class="edge"><title>{0, X}&#45;&gt;{0, 1, X}</title>
<path fill="none" stroke="black" d="M100.026,-2078.21C107.113,-2054.48 115,-2021.35 115,-1991.49 115,-1991.49 115,-1991.49 115,-1734 115,-1704.12 120.066,-1671.14 125.443,-1644.56"/>
<polygon fill="black" stroke="black" points="128.883,-1645.21 127.51,-1634.7 122.032,-1643.77 128.883,-1645.21"/>
<text text-anchor="middle" x="118.5" y="-1865.59" font-family="Times New Roman,serif" font-size="14.00">1</text>
</g>
<!-- {2, X} -->
<g id="node4" class="node"><title>{2, X}</title>
<ellipse fill="none" stroke="black" cx="473" cy="-1869.29" rx="35.194" ry="35.194"/>
<text text-anchor="middle" x="473" y="-1865.59" font-family="Times New Roman,serif" font-size="14.00">{2, X}</text>
</g>
<!-- {1, X}&#45;&gt;{2, X} -->
<g id="edge4" class="edge"><title>{1, X}&#45;&gt;{2, X}</title>
<path fill="none" stroke="black" d="M390.783,-1963.62C406.263,-1946.05 426.881,-1922.65 443.597,-1903.67"/>
<polygon fill="black" stroke="black" points="446.277,-1905.92 450.261,-1896.11 441.025,-1901.3 446.277,-1905.92"/>
<text text-anchor="middle" x="429.5" y="-1926.19" font-family="Times New Roman,serif" font-size="14.00">0</text>
</g>
<!-- {0, 2, X} -->
<g id="node12" class="node"><title>{0, 2, X}</title>
<ellipse fill="none" stroke="black" cx="293" cy="-627.065" rx="44.393" ry="44.393"/>
<text text-anchor="middle" x="293" y="-623.365" font-family="Times New Roman,serif" font-size="14.00">{0, 2, X}</text>
</g>
<!-- {1, X}&#45;&gt;{0, 2, X} -->
<g id="edge5" class="edge"><title>{1, X}&#45;&gt;{0, 2, X}</title>
<path fill="none" stroke="black" d="M365.612,-1955.2C362.891,-1914.28 358.614,-1843.79 357,-1783.2 355.859,-1740.37 356.264,-1729.64 357,-1686.81 360.69,-1471.94 394.218,-1416.85 369,-1203.43 351.099,-1051.94 325.619,-1017.74 289,-869.653 283.385,-846.945 278.912,-841.862 276,-818.653 270.668,-776.145 272.18,-764.931 276,-722.261 277.216,-708.676 279.4,-694.119 281.806,-680.61"/>
<polygon fill="black" stroke="black" points="285.295,-680.988 283.677,-670.517 278.413,-679.712 285.295,-680.988"/>
<text text-anchor="middle" x="382.5" y="-1359.32" font-family="Times New Roman,serif" font-size="14.00">1</text>
</g>
<!-- {3, X} -->
<g id="node6" class="node"><title>{3, X}</title>
<ellipse fill="none" stroke="black" cx="130" cy="-39.0969" rx="35.1841" ry="35.1841"/>
<ellipse fill="none" stroke="black" cx="130" cy="-39.0969" rx="39.194" ry="39.194"/>
<text text-anchor="middle" x="130" y="-35.3969" font-family="Times New Roman,serif" font-size="14.00">{3, X}</text>
</g>
<!-- {2, X}&#45;&gt;{3, X} -->
<g id="edge6" class="edge"><title>{2, X}&#45;&gt;{3, X}</title>
<path fill="none" stroke="black" d="M492.391,-1840.02C508.226,-1814.14 528,-1774.18 528,-1736 528,-1736 528,-1736 528,-176.39 528,-103.41 285.456,-61.315 179.05,-46.3591"/>
<polygon fill="black" stroke="black" points="179.271,-42.8566 168.887,-44.9551 178.314,-49.7907 179.271,-42.8566"/>
<text text-anchor="middle" x="531.5" y="-923.898" font-family="Times New Roman,serif" font-size="14.00">0</text>
</g>
<!-- {0, 3, X} -->
<g id="node14" class="node"><title>{0, 3, X}</title>
<ellipse fill="none" stroke="black" cx="414" cy="-1735" rx="44.3766" ry="44.3766"/>
<ellipse fill="none" stroke="black" cx="414" cy="-1735" rx="48.393" ry="48.393"/>
<text text-anchor="middle" x="414" y="-1731.3" font-family="Times New Roman,serif" font-size="14.00">{0, 3, X}</text>
</g>
<!-- {2, X}&#45;&gt;{0, 3, X} -->
<g id="edge7" class="edge"><title>{2, X}&#45;&gt;{0, 3, X}</title>
<path fill="none" stroke="black" d="M459.018,-1836.94C452.637,-1822.64 444.902,-1805.29 437.657,-1789.05"/>
<polygon fill="black" stroke="black" points="440.732,-1787.35 433.462,-1779.64 434.338,-1790.2 440.732,-1787.35"/>
<text text-anchor="middle" x="451.5" y="-1805" font-family="Times New Roman,serif" font-size="14.00">1</text>
</g>
<!-- {0, 1, 2, X} -->
<g id="node5" class="node"><title>{0, 1, 2, X}</title>
<ellipse fill="none" stroke="black" cx="175" cy="-1442.47" rx="53.8905" ry="53.8905"/>
<text text-anchor="middle" x="175" y="-1438.77" font-family="Times New Roman,serif" font-size="14.00">{0, 1, 2, X}</text>
</g>
<!-- {1, 2, 3, X} -->
<g id="node9" class="node"><title>{1, 2, 3, X}</title>
<ellipse fill="none" stroke="black" cx="233" cy="-1094.49" rx="53.8943" ry="53.8943"/>
<ellipse fill="none" stroke="black" cx="233" cy="-1094.49" rx="57.8905" ry="57.8905"/>
<text text-anchor="middle" x="233" y="-1090.79" font-family="Times New Roman,serif" font-size="14.00">{1, 2, 3, X}</text>
</g>
<!-- {0, 1, 2, X}&#45;&gt;{1, 2, 3, X} -->
<g id="edge8" class="edge"><title>{0, 1, 2, X}&#45;&gt;{1, 2, 3, X}</title>
<path fill="none" stroke="black" d="M171.593,-1388.23C169.795,-1339.47 170.419,-1265.65 185,-1203.43 188.779,-1187.31 194.948,-1170.62 201.625,-1155.32"/>
<polygon fill="black" stroke="black" points="204.911,-1156.55 205.831,-1146 198.53,-1153.67 204.911,-1156.55"/>
<text text-anchor="middle" x="188.5" y="-1266.78" font-family="Times New Roman,serif" font-size="14.00">0</text>
</g>
<!-- {0, 1, 2, 3, X} -->
<g id="node17" class="node"><title>{0, 1, 2, 3, X}</title>
<ellipse fill="none" stroke="black" cx="268" cy="-1270.48" rx="63.0862" ry="63.0862"/>
<ellipse fill="none" stroke="black" cx="268" cy="-1270.48" rx="67.0888" ry="67.0888"/>
<text text-anchor="middle" x="268" y="-1266.78" font-family="Times New Roman,serif" font-size="14.00">{0, 1, 2, 3, X}</text>
</g>
<!-- {0, 1, 2, X}&#45;&gt;{0, 1, 2, 3, X} -->
<g id="edge9" class="edge"><title>{0, 1, 2, X}&#45;&gt;{0, 1, 2, 3, X}</title>
<path fill="none" stroke="black" d="M200.659,-1394.57C210.127,-1377.26 221.049,-1357.3 231.305,-1338.55"/>
<polygon fill="black" stroke="black" points="234.39,-1340.2 236.119,-1329.75 228.249,-1336.85 234.39,-1340.2"/>
<text text-anchor="middle" x="225.5" y="-1359.32" font-family="Times New Roman,serif" font-size="14.00">1</text>
</g>
<!-- {3, X}&#45;&gt;{0, X} -->
<g id="edge11" class="edge"><title>{3, X}&#45;&gt;{0, X}</title>
<path fill="none" stroke="black" d="M101.561,-66.3907C77.1924,-91.9039 46,-133.03 46,-176.39 46,-1991.49 46,-1991.49 46,-1991.49 46,-2019.4 56.5619,-2048.92 67.2166,-2071.6"/>
<polygon fill="black" stroke="black" points="64.2176,-2073.44 71.758,-2080.88 70.5046,-2070.36 64.2176,-2073.44"/>
<text text-anchor="middle" x="49.5" y="-1090.79" font-family="Times New Roman,serif" font-size="14.00">1</text>
</g>
<!-- {3, X}&#45;&gt;{X} -->
<g id="edge10" class="edge"><title>{3, X}&#45;&gt;{X}</title>
<path fill="none" stroke="black" d="M95.1624,-57.4735C56.6548,-79.4313 0,-121.127 0,-176.39 0,-2112.68 0,-2112.68 0,-2112.68 0,-2139.48 8.37754,-2168.7 16.2785,-2190.3"/>
<polygon fill="black" stroke="black" points="13.0107,-2191.55 19.8434,-2199.65 19.5515,-2189.06 13.0107,-2191.55"/>
<text text-anchor="middle" x="3.5" y="-1174.23" font-family="Times New Roman,serif" font-size="14.00">0</text>
</g>
<!-- {0, 1, 3, X} -->
<g id="node7" class="node"><title>{0, 1, 3, X}</title>
<ellipse fill="none" stroke="black" cx="237" cy="-473.923" rx="53.8943" ry="53.8943"/>
<ellipse fill="none" stroke="black" cx="237" cy="-473.923" rx="57.8905" ry="57.8905"/>
<text text-anchor="middle" x="237" y="-470.223" font-family="Times New Roman,serif" font-size="14.00">{0, 1, 3, X}</text>
</g>
<!-- {0, 1, 3, X}&#45;&gt;{0, 1, 2, X} -->
<g id="edge13" class="edge"><title>{0, 1, 3, X}&#45;&gt;{0, 1, 2, X}</title>
<path fill="none" stroke="black" d="M198.941,-517.79C184.664,-536.468 169.976,-559.429 162,-582.869 65.2674,-867.13 128.797,-1235.58 160.286,-1379.78"/>
<polygon fill="black" stroke="black" points="156.919,-1380.76 162.495,-1389.77 163.753,-1379.25 156.919,-1380.76"/>
<text text-anchor="middle" x="116.5" y="-923.898" font-family="Times New Roman,serif" font-size="14.00">1</text>
</g>
<!-- {1, 2, X} -->
<g id="node13" class="node"><title>{1, 2, X}</title>
<ellipse fill="none" stroke="black" cx="194" cy="-320.782" rx="44.393" ry="44.393"/>
<text text-anchor="middle" x="194" y="-317.082" font-family="Times New Roman,serif" font-size="14.00">{1, 2, X}</text>
</g>
<!-- {0, 1, 3, X}&#45;&gt;{1, 2, X} -->
<g id="edge12" class="edge"><title>{0, 1, 3, X}&#45;&gt;{1, 2, X}</title>
<path fill="none" stroke="black" d="M221.354,-417.93C217.218,-403.392 212.769,-387.753 208.685,-373.4"/>
<polygon fill="black" stroke="black" points="212.028,-372.359 205.925,-363.698 205.295,-374.274 212.028,-372.359"/>
<text text-anchor="middle" x="219.5" y="-386.778" font-family="Times New Roman,serif" font-size="14.00">0</text>
</g>
<!-- {0, 2, 3, X} -->
<g id="node8" class="node"><title>{0, 2, 3, X}</title>
<ellipse fill="none" stroke="black" cx="222" cy="-927.598" rx="53.8943" ry="53.8943"/>
<ellipse fill="none" stroke="black" cx="222" cy="-927.598" rx="57.8905" ry="57.8905"/>
<text text-anchor="middle" x="222" y="-923.898" font-family="Times New Roman,serif" font-size="14.00">{0, 2, 3, X}</text>
</g>
<!-- {0, 2, 3, X}&#45;&gt;{0, 1, 3, X} -->
<g id="edge15" class="edge"><title>{0, 2, 3, X}&#45;&gt;{0, 1, 3, X}</title>
<path fill="none" stroke="black" d="M223.9,-869.393C226.671,-785.935 231.814,-631.091 234.764,-542.253"/>
<polygon fill="black" stroke="black" points="238.27,-542.13 235.104,-532.019 231.274,-541.897 238.27,-542.13"/>
<text text-anchor="middle" x="233.5" y="-693.061" font-family="Times New Roman,serif" font-size="14.00">1</text>
</g>
<!-- {1, 3, X} -->
<g id="node15" class="node"><title>{1, 3, X}</title>
<ellipse fill="none" stroke="black" cx="333" cy="-770.457" rx="44.3766" ry="44.3766"/>
<ellipse fill="none" stroke="black" cx="333" cy="-770.457" rx="48.393" ry="48.393"/>
<text text-anchor="middle" x="333" y="-766.757" font-family="Times New Roman,serif" font-size="14.00">{1, 3, X}</text>
</g>
<!-- {0, 2, 3, X}&#45;&gt;{1, 3, X} -->
<g id="edge14" class="edge"><title>{0, 2, 3, X}&#45;&gt;{1, 3, X}</title>
<path fill="none" stroke="black" d="M255.304,-880.051C269.273,-860.526 285.488,-837.863 299.48,-818.306"/>
<polygon fill="black" stroke="black" points="302.355,-820.303 305.328,-810.133 296.662,-816.23 302.355,-820.303"/>
<text text-anchor="middle" x="288.5" y="-840.453" font-family="Times New Roman,serif" font-size="14.00">0</text>
</g>
<!-- {1, 2, 3, X}&#45;&gt;{0, 2, 3, X} -->
<g id="edge17" class="edge"><title>{1, 2, 3, X}&#45;&gt;{0, 2, 3, X}</title>
<path fill="none" stroke="black" d="M229.184,-1036.28C228.308,-1023.16 227.37,-1009.1 226.47,-995.606"/>
<polygon fill="black" stroke="black" points="229.949,-995.171 225.791,-985.426 222.965,-995.637 229.949,-995.171"/>
<text text-anchor="middle" x="231.5" y="-1007.34" font-family="Times New Roman,serif" font-size="14.00">1</text>
</g>
<!-- {2, 3, X} -->
<g id="node16" class="node"><title>{2, 3, X}</title>
<ellipse fill="none" stroke="black" cx="350" cy="-177.39" rx="44.3766" ry="44.3766"/>
<ellipse fill="none" stroke="black" cx="350" cy="-177.39" rx="48.393" ry="48.393"/>
<text text-anchor="middle" x="350" y="-173.69" font-family="Times New Roman,serif" font-size="14.00">{2, 3, X}</text>
</g>
<!-- {1, 2, 3, X}&#45;&gt;{2, 3, X} -->
<g id="edge16" class="edge"><title>{1, 2, 3, X}&#45;&gt;{2, 3, X}</title>
<path fill="none" stroke="black" d="M266.701,-1046.91C303.094,-994.192 359.89,-904.468 390,-818.653 408.007,-767.331 409,-752.15 409,-697.761 409,-697.761 409,-697.761 409,-319.782 409,-287.185 395.479,-253.395 381.383,-227.024"/>
<polygon fill="black" stroke="black" points="384.302,-225.071 376.394,-218.02 378.179,-228.463 384.302,-225.071"/>
<text text-anchor="middle" x="412.5" y="-623.365" font-family="Times New Roman,serif" font-size="14.00">0</text>
</g>
<!-- {X}&#45;&gt;{0, X} -->
<g id="edge19" class="edge"><title>{X}&#45;&gt;{0, X}</title>
<path fill="none" stroke="black" d="M41.9395,-2200.5C49.4399,-2186.5 59.3215,-2168.06 68.0927,-2151.69"/>
<polygon fill="black" stroke="black" points="71.1906,-2153.32 72.8292,-2142.86 65.0207,-2150.02 71.1906,-2153.32"/>
<text text-anchor="middle" x="65.5" y="-2168.58" font-family="Times New Roman,serif" font-size="14.00">1</text>
</g>
<!-- {X}&#45;&gt;{X} -->
<g id="edge18" class="edge"><title>{X}&#45;&gt;{X}</title>
<path fill="none" stroke="black" d="M54.8768,-2231.95C65.2254,-2232.52 73.9977,-2229.79 73.9977,-2223.78 73.9977,-2219.92 70.3975,-2217.42 65.0891,-2216.27"/>
<polygon fill="black" stroke="black" points="65.0835,-2212.76 54.8768,-2215.6 64.6275,-2219.74 65.0835,-2212.76"/>
<text text-anchor="middle" x="77.4977" y="-2220.08" font-family="Times New Roman,serif" font-size="14.00">0</text>
</g>
<!-- {0, 1, X}&#45;&gt;{0, 1, 2, X} -->
<g id="edge21" class="edge"><title>{0, 1, X}&#45;&gt;{0, 1, 2, X}</title>
<path fill="none" stroke="black" d="M148.603,-1548.44C152.003,-1534.92 155.842,-1519.65 159.518,-1505.04"/>
<polygon fill="black" stroke="black" points="162.985,-1505.6 162.029,-1495.05 156.196,-1503.89 162.985,-1505.6"/>
<text text-anchor="middle" x="160.5" y="-1518.21" font-family="Times New Roman,serif" font-size="14.00">1</text>
</g>
<!-- {0, 1, X}&#45;&gt;{1, 2, X} -->
<g id="edge20" class="edge"><title>{0, 1, X}&#45;&gt;{1, 2, X}</title>
<path fill="none" stroke="black" d="M118.758,-1551.67C106.153,-1522.59 92,-1481.47 92,-1443.47 92,-1443.47 92,-1443.47 92,-472.923 92,-427.155 124.534,-384.875 152.854,-356.742"/>
<polygon fill="black" stroke="black" points="155.548,-359.006 160.319,-349.546 150.69,-353.966 155.548,-359.006"/>
<text text-anchor="middle" x="95.5" y="-923.898" font-family="Times New Roman,serif" font-size="14.00">0</text>
</g>
<!-- {0, 2, X}&#45;&gt;{0, 1, 3, X} -->
<g id="edge23" class="edge"><title>{0, 2, X}&#45;&gt;{0, 1, 3, X}</title>
<path fill="none" stroke="black" d="M277.846,-585.164C272.508,-570.756 266.374,-554.203 260.511,-538.377"/>
<polygon fill="black" stroke="black" points="263.66,-536.804 256.904,-528.643 257.096,-539.236 263.66,-536.804"/>
<text text-anchor="middle" x="274.5" y="-553.669" font-family="Times New Roman,serif" font-size="14.00">1</text>
</g>
<!-- {0, 2, X}&#45;&gt;{1, 3, X} -->
<g id="edge22" class="edge"><title>{0, 2, X}&#45;&gt;{1, 3, X}</title>
<path fill="none" stroke="black" d="M304.902,-670.137C308.797,-683.904 313.185,-699.414 317.315,-714.013"/>
<polygon fill="black" stroke="black" points="314.033,-715.272 320.124,-723.941 320.769,-713.366 314.033,-715.272"/>
<text text-anchor="middle" x="318.5" y="-693.061" font-family="Times New Roman,serif" font-size="14.00">0</text>
</g>
<!-- {1, 2, X}&#45;&gt;{0, 2, 3, X} -->
<g id="edge25" class="edge"><title>{1, 2, X}&#45;&gt;{0, 2, 3, X}</title>
<path fill="none" stroke="black" d="M181.102,-363.087C176.638,-379.39 172.205,-398.396 170,-415.978 150.004,-575.45 183.997,-763.681 205.829,-860.983"/>
<polygon fill="black" stroke="black" points="202.469,-861.991 208.098,-870.966 209.295,-860.439 202.469,-861.991"/>
<text text-anchor="middle" x="177.5" y="-623.365" font-family="Times New Roman,serif" font-size="14.00">1</text>
</g>
<!-- {1, 2, X}&#45;&gt;{2, 3, X} -->
<g id="edge24" class="edge"><title>{1, 2, X}&#45;&gt;{2, 3, X}</title>
<path fill="none" stroke="black" d="M226.323,-290.485C249.697,-269.3 281.52,-240.457 307.032,-217.334"/>
<polygon fill="black" stroke="black" points="309.672,-219.666 314.731,-210.357 304.971,-214.479 309.672,-219.666"/>
<text text-anchor="middle" x="280.5" y="-247.386" font-family="Times New Roman,serif" font-size="14.00">0</text>
</g>
<!-- {0, 3, X}&#45;&gt;{1, X} -->
<g id="edge26" class="edge"><title>{0, 3, X}&#45;&gt;{1, X}</title>
<path fill="none" stroke="black" d="M405.519,-1782.74C397.054,-1829.38 384.151,-1900.49 375.897,-1945.97"/>
<polygon fill="black" stroke="black" points="372.45,-1945.36 374.108,-1955.83 379.338,-1946.61 372.45,-1945.36"/>
<text text-anchor="middle" x="398.5" y="-1865.59" font-family="Times New Roman,serif" font-size="14.00">0</text>
</g>
<!-- {0, 3, X}&#45;&gt;{0, 1, X} -->
<g id="edge27" class="edge"><title>{0, 3, X}&#45;&gt;{0, 1, X}</title>
<path fill="none" stroke="black" d="M371.48,-1712.22C321.411,-1686.57 238.452,-1644.07 186.084,-1617.24"/>
<polygon fill="black" stroke="black" points="187.492,-1614.03 176.996,-1612.59 184.301,-1620.26 187.492,-1614.03"/>
<text text-anchor="middle" x="288.5" y="-1657.61" font-family="Times New Roman,serif" font-size="14.00">1</text>
</g>
<!-- {1, 3, X}&#45;&gt;{2, X} -->
<g id="edge28" class="edge"><title>{1, 3, X}&#45;&gt;{2, X}</title>
<path fill="none" stroke="black" d="M376.141,-792.361C405.026,-808.934 440.798,-835.058 458,-869.653 542.836,-1040.26 493.065,-1653.94 477.28,-1824.21"/>
<polygon fill="black" stroke="black" points="473.782,-1824.03 476.335,-1834.31 480.752,-1824.68 473.782,-1824.03"/>
<text text-anchor="middle" x="508.5" y="-1359.32" font-family="Times New Roman,serif" font-size="14.00">0</text>
</g>
<!-- {1, 3, X}&#45;&gt;{0, 2, X} -->
<g id="edge29" class="edge"><title>{1, 3, X}&#45;&gt;{0, 2, X}</title>
<path fill="none" stroke="black" d="M309.274,-728.324C305.629,-720.538 302.315,-712.307 300,-704.261 297.906,-696.982 296.398,-689.166 295.318,-681.412"/>
<polygon fill="black" stroke="black" points="298.774,-680.831 294.132,-671.307 291.822,-681.647 298.774,-680.831"/>
<text text-anchor="middle" x="303.5" y="-693.061" font-family="Times New Roman,serif" font-size="14.00">1</text>
</g>
<!-- {2, 3, X}&#45;&gt;{3, X} -->
<g id="edge30" class="edge"><title>{2, 3, X}&#45;&gt;{3, X}</title>
<path fill="none" stroke="black" d="M309.392,-151.233C270.147,-126.92 210.985,-90.2682 171.456,-65.7796"/>
<polygon fill="black" stroke="black" points="173.186,-62.7338 162.841,-60.4426 169.499,-68.6844 173.186,-62.7338"/>
<text text-anchor="middle" x="243.5" y="-99.9938" font-family="Times New Roman,serif" font-size="14.00">0</text>
</g>
<!-- {2, 3, X}&#45;&gt;{0, 3, X} -->
<g id="edge31" class="edge"><title>{2, 3, X}&#45;&gt;{0, 3, X}</title>
<path fill="none" stroke="black" d="M386.948,-208.862C414.36,-235.079 447,-275.576 447,-319.782 447,-1592.61 447,-1592.61 447,-1592.61 447,-1621.89 440.206,-1653.71 432.783,-1679.73"/>
<polygon fill="black" stroke="black" points="429.402,-1678.83 429.92,-1689.41 436.114,-1680.81 429.402,-1678.83"/>
<text text-anchor="middle" x="450.5" y="-923.898" font-family="Times New Roman,serif" font-size="14.00">1</text>
</g>
<!-- {0, 1, 2, 3, X}&#45;&gt;{1, 2, 3, X} -->
<g id="edge32" class="edge"><title>{0, 1, 2, 3, X}&#45;&gt;{1, 2, 3, X}</title>
<path fill="none" stroke="black" d="M254.967,-1204.69C252.137,-1190.62 249.139,-1175.72 246.298,-1161.59"/>
<polygon fill="black" stroke="black" points="249.665,-1160.58 244.262,-1151.47 242.803,-1161.97 249.665,-1160.58"/>
<text text-anchor="middle" x="254.5" y="-1174.23" font-family="Times New Roman,serif" font-size="14.00">0</text>
</g>
<!-- {0, 1, 2, 3, X}&#45;&gt;{0, 1, 2, 3, X} -->
<g id="edge33" class="edge"><title>{0, 1, 2, 3, X}&#45;&gt;{0, 1, 2, 3, X}</title>
<path fill="none" stroke="black" d="M333.251,-1286.72C344.905,-1284.61 353.044,-1279.19 353.044,-1270.48 353.044,-1264.49 349.197,-1260.06 343.006,-1257.19"/>
<polygon fill="black" stroke="black" points="343.836,-1253.78 333.251,-1254.24 341.812,-1260.48 343.836,-1253.78"/>
<text text-anchor="middle" x="356.544" y="-1266.78" font-family="Times New Roman,serif" font-size="14.00">1</text>
</g>
</g>
</svg>
