<?xml version="1.0" encoding="UTF-8" standalone="no"?>
<!DOCTYPE svg PUBLIC "-//W3C//DTD SVG 1.1//EN"
 "http://www.w3.org/Graphics/SVG/1.1/DTD/svg11.dtd">
<!-- Generated by graphviz version 2.38.0 (20140413.2041)
 -->
<!-- Title: %25 Pages: 1 -->
<svg width="134pt" height="441pt"
 viewBox="0.00 0.00 134.00 440.60" xmlns="http://www.w3.org/2000/svg" xmlns:xlink="http://www.w3.org/1999/xlink">
<g id="graph0" class="graph" transform="scale(1 1) rotate(0) translate(4 436.6)">
<title>%25</title>
<polygon fill="white" stroke="none" points="-4,4 -4,-436.6 130,-436.6 130,4 -4,4"/>
<!-- qi -->
<g id="node1" class="node"><title>qi</title>
<ellipse fill="black" stroke="black" cx="58" cy="-430.8" rx="1.8" ry="1.8"/>
</g>
<!-- X -->
<g id="node2" class="node"><title>X</title>
<ellipse fill="none" stroke="black" cx="58" cy="-374" rx="18" ry="18"/>
<text text-anchor="middle" x="58" y="-370.3" font-family="Times New Roman,serif" font-size="14.00">X</text>
</g>
<!-- qi&#45;&gt;X -->
<g id="edge1" class="edge"><title>qi&#45;&gt;X</title>
<path fill="none" stroke="black" d="M58,-428.849C58,-425.485 58,-413.725 58,-402.05"/>
<polygon fill="black" stroke="black" points="61.5001,-402.025 58,-392.025 54.5001,-402.025 61.5001,-402.025"/>
</g>
<!-- X&#45;&gt;X -->
<g id="edge2" class="edge"><title>X&#45;&gt;X</title>
<path fill="none" stroke="black" d="M75.7817,-377.236C85.3149,-377.786 94,-376.707 94,-374 94,-372.35 90.7749,-371.306 86.0981,-370.865"/>
<polygon fill="black" stroke="black" points="85.8156,-367.362 75.7817,-370.764 85.7469,-374.362 85.8156,-367.362"/>
<text text-anchor="middle" x="97.5" y="-370.3" font-family="Times New Roman,serif" font-size="14.00">1</text>
</g>
<!-- X&#45;&gt;X -->
<g id="edge3" class="edge"><title>X&#45;&gt;X</title>
<path fill="none" stroke="black" d="M75.4203,-379.316C92.791,-382.346 112,-380.574 112,-374 112,-368.71 99.5617,-366.529 85.652,-367.458"/>
<polygon fill="black" stroke="black" points="84.9328,-364.019 75.4203,-368.684 85.7657,-370.969 84.9328,-364.019"/>
<text text-anchor="middle" x="115.5" y="-370.3" font-family="Times New Roman,serif" font-size="14.00">0</text>
</g>
<!-- 0 -->
<g id="node3" class="node"><title>0</title>
<ellipse fill="none" stroke="black" cx="18" cy="-287" rx="18" ry="18"/>
<text text-anchor="middle" x="18" y="-283.3" font-family="Times New Roman,serif" font-size="14.00">0</text>
</g>
<!-- X&#45;&gt;0 -->
<g id="edge4" class="edge"><title>X&#45;&gt;0</title>
<path fill="none" stroke="black" d="M50.6634,-357.41C44.7993,-344.949 36.4679,-327.244 29.6873,-312.835"/>
<polygon fill="black" stroke="black" points="32.715,-311.049 25.2901,-303.491 26.3813,-314.03 32.715,-311.049"/>
<text text-anchor="middle" x="44.5" y="-326.8" font-family="Times New Roman,serif" font-size="14.00">1</text>
</g>
<!-- 1 -->
<g id="node4" class="node"><title>1</title>
<ellipse fill="none" stroke="black" cx="48" cy="-200" rx="18" ry="18"/>
<text text-anchor="middle" x="48" y="-196.3" font-family="Times New Roman,serif" font-size="14.00">1</text>
</g>
<!-- 0&#45;&gt;1 -->
<g id="edge5" class="edge"><title>0&#45;&gt;1</title>
<path fill="none" stroke="black" d="M16.5708,-268.818C16.3444,-258.923 17.0944,-246.423 21,-236 22.9362,-230.833 25.9149,-225.807 29.1977,-221.25"/>
<polygon fill="black" stroke="black" points="32.1649,-223.145 35.6911,-213.154 26.7042,-218.765 32.1649,-223.145"/>
<text text-anchor="middle" x="24.5" y="-239.8" font-family="Times New Roman,serif" font-size="14.00">1</text>
</g>
<!-- 0&#45;&gt;1 -->
<g id="edge6" class="edge"><title>0&#45;&gt;1</title>
<path fill="none" stroke="black" d="M23.7843,-269.611C28.0591,-257.499 33.9642,-240.768 38.8728,-226.86"/>
<polygon fill="black" stroke="black" points="42.2057,-227.933 42.2335,-217.339 35.6047,-225.604 42.2057,-227.933"/>
<text text-anchor="middle" x="38.5" y="-239.8" font-family="Times New Roman,serif" font-size="14.00">0</text>
</g>
<!-- 1&#45;&gt;X -->
<g id="edge7" class="edge"><title>1&#45;&gt;X</title>
<path fill="none" stroke="black" d="M48.9914,-218.052C50.7256,-247.88 54.3235,-309.764 56.4095,-345.643"/>
<polygon fill="black" stroke="black" points="52.93,-346.099 57.0046,-355.879 59.9182,-345.693 52.93,-346.099"/>
<text text-anchor="middle" x="56.5" y="-283.3" font-family="Times New Roman,serif" font-size="14.00">ε</text>
</g>
<!-- 2 -->
<g id="node5" class="node"><title>2</title>
<ellipse fill="none" stroke="black" cx="48" cy="-113" rx="18" ry="18"/>
<text text-anchor="middle" x="48" y="-109.3" font-family="Times New Roman,serif" font-size="14.00">2</text>
</g>
<!-- 1&#45;&gt;2 -->
<g id="edge8" class="edge"><title>1&#45;&gt;2</title>
<path fill="none" stroke="black" d="M48,-181.799C48,-170.163 48,-154.548 48,-141.237"/>
<polygon fill="black" stroke="black" points="51.5001,-141.175 48,-131.175 44.5001,-141.175 51.5001,-141.175"/>
<text text-anchor="middle" x="51.5" y="-152.8" font-family="Times New Roman,serif" font-size="14.00">0</text>
</g>
<!-- 3 -->
<g id="node6" class="node"><title>3</title>
<ellipse fill="none" stroke="black" cx="48" cy="-22" rx="18" ry="18"/>
<ellipse fill="none" stroke="black" cx="48" cy="-22" rx="22" ry="22"/>
<text text-anchor="middle" x="48" y="-18.3" font-family="Times New Roman,serif" font-size="14.00">3</text>
</g>
<!-- 2&#45;&gt;3 -->
<g id="edge9" class="edge"><title>2&#45;&gt;3</title>
<path fill="none" stroke="black" d="M41.3664,-96.2577C39.201,-90.3321 37.0772,-83.4629 36,-77 34.6717,-69.0301 35.5125,-60.4663 37.2402,-52.5599"/>
<polygon fill="black" stroke="black" points="40.6882,-53.2164 39.9145,-42.6499 33.93,-51.3926 40.6882,-53.2164"/>
<text text-anchor="middle" x="39.5" y="-65.8" font-family="Times New Roman,serif" font-size="14.00">1</text>
</g>
<!-- 2&#45;&gt;3 -->
<g id="edge10" class="edge"><title>2&#45;&gt;3</title>
<path fill="none" stroke="black" d="M48,-94.8399C48,-83.4407 48,-68.1336 48,-54.5781"/>
<polygon fill="black" stroke="black" points="51.5001,-54.1905 48,-44.1905 44.5001,-54.1906 51.5001,-54.1905"/>
<text text-anchor="middle" x="51.5" y="-65.8" font-family="Times New Roman,serif" font-size="14.00">0</text>
</g>
</g>
</svg>
