<?xml version="1.0" encoding="UTF-8" standalone="no"?>
<!DOCTYPE svg PUBLIC "-//W3C//DTD SVG 1.1//EN"
 "http://www.w3.org/Graphics/SVG/1.1/DTD/svg11.dtd">
<!-- Generated by graphviz version 2.38.0 (20140413.2041)
 -->
<!-- Title: %35 Pages: 1 -->
<svg width="178pt" height="545pt"
 viewBox="0.00 0.00 178.19 545.17" xmlns="http://www.w3.org/2000/svg" xmlns:xlink="http://www.w3.org/1999/xlink">
<g id="graph0" class="graph" transform="scale(1 1) rotate(0) translate(4 541.171)">
<title>%35</title>
<polygon fill="white" stroke="none" points="-4,4 -4,-541.171 174.191,-541.171 174.191,4 -4,4"/>
<!-- __init -->
<g id="node1" class="node"><title>__init</title>
<ellipse fill="black" stroke="black" cx="57.1949" cy="-535.371" rx="1.8" ry="1.8"/>
</g>
<!-- {S} -->
<g id="node5" class="node"><title>{S}</title>
<ellipse fill="none" stroke="black" cx="57.1949" cy="-467.873" rx="24.8692" ry="24.8692"/>
<ellipse fill="none" stroke="black" cx="57.1949" cy="-467.873" rx="28.897" ry="28.897"/>
<text text-anchor="middle" x="57.1949" y="-464.173" font-family="Times New Roman,serif" font-size="14.00">{S}</text>
</g>
<!-- __init&#45;&gt;{S} -->
<g id="edge1" class="edge"><title>__init&#45;&gt;{S}</title>
<path fill="none" stroke="black" d="M57.1949,-533.234C57.1949,-529.757 57.1949,-518.774 57.1949,-506.841"/>
<polygon fill="black" stroke="black" points="60.695,-506.739 57.1949,-496.739 53.695,-506.739 60.695,-506.739"/>
</g>
<!-- {q1, S} -->
<g id="node2" class="node"><title>{q1, S}</title>
<ellipse fill="none" stroke="black" cx="102.195" cy="-345.179" rx="38.9934" ry="38.9934"/>
<ellipse fill="none" stroke="black" cx="102.195" cy="-345.179" rx="42.9931" ry="42.9931"/>
<text text-anchor="middle" x="102.195" y="-341.479" font-family="Times New Roman,serif" font-size="14.00">{q1, S}</text>
</g>
<!-- {q1, S}&#45;&gt;{q1, S} -->
<g id="edge2" class="edge"><title>{q1, S}&#45;&gt;{q1, S}</title>
<path fill="none" stroke="black" d="M143.533,-357.835C154.698,-357.167 163.191,-352.948 163.191,-345.179 163.191,-339.959 159.357,-336.341 153.455,-334.327"/>
<polygon fill="black" stroke="black" points="153.998,-330.869 143.533,-332.523 152.745,-337.756 153.998,-330.869"/>
<text text-anchor="middle" x="166.691" y="-341.479" font-family="Times New Roman,serif" font-size="14.00">a</text>
</g>
<!-- {q2, q3} -->
<g id="node3" class="node"><title>{q2, q3}</title>
<ellipse fill="none" stroke="black" cx="102.195" cy="-208.286" rx="42.7926" ry="42.7926"/>
<text text-anchor="middle" x="102.195" y="-204.586" font-family="Times New Roman,serif" font-size="14.00">{q2, q3}</text>
</g>
<!-- {q1, S}&#45;&gt;{q2, q3} -->
<g id="edge3" class="edge"><title>{q1, S}&#45;&gt;{q2, q3}</title>
<path fill="none" stroke="black" d="M102.195,-301.868C102.195,-289.061 102.195,-274.844 102.195,-261.471"/>
<polygon fill="black" stroke="black" points="105.695,-261.447 102.195,-251.447 98.695,-261.447 105.695,-261.447"/>
<text text-anchor="middle" x="106.195" y="-272.982" font-family="Times New Roman,serif" font-size="14.00">b</text>
</g>
<!-- {q1, q2, q3} -->
<g id="node4" class="node"><title>{q1, q2, q3}</title>
<ellipse fill="none" stroke="black" cx="57.1949" cy="-57.1949" rx="57.3905" ry="57.3905"/>
<text text-anchor="middle" x="57.1949" y="-53.4949" font-family="Times New Roman,serif" font-size="14.00">{q1, q2, q3}</text>
</g>
<!-- {q2, q3}&#45;&gt;{q1, q2, q3} -->
<g id="edge4" class="edge"><title>{q2, q3}&#45;&gt;{q1, q2, q3}</title>
<path fill="none" stroke="black" d="M90.0173,-166.94C85.8536,-153.145 81.0879,-137.356 76.5027,-122.164"/>
<polygon fill="black" stroke="black" points="79.764,-120.857 73.5237,-112.294 73.0626,-122.879 79.764,-120.857"/>
<text text-anchor="middle" x="87.1949" y="-136.19" font-family="Times New Roman,serif" font-size="14.00">b</text>
</g>
<!-- {q1, q2, q3}&#45;&gt;{q1, q2, q3} -->
<g id="edge6" class="edge"><title>{q1, q2, q3}&#45;&gt;{q1, q2, q3}</title>
<path fill="none" stroke="black" d="M112.611,-72.0294C124.116,-70.4679 132.39,-65.5231 132.39,-57.1949 132.39,-51.5995 128.655,-47.5313 122.715,-44.9904"/>
<polygon fill="black" stroke="black" points="123.17,-41.4924 112.611,-42.3605 121.407,-48.2667 123.17,-41.4924"/>
<text text-anchor="middle" x="136.39" y="-53.4949" font-family="Times New Roman,serif" font-size="14.00">b</text>
</g>
<!-- {q1, q2, q3}&#45;&gt;{S} -->
<g id="edge5" class="edge"><title>{q1, q2, q3}&#45;&gt;{S}</title>
<path fill="none" stroke="black" d="M52.8356,-114.351C51.7469,-130.79 50.736,-148.8 50.1949,-165.39 46.9671,-264.353 45.8043,-289.257 50.1949,-388.175 50.79,-401.583 51.9528,-416.238 53.1624,-429.228"/>
<polygon fill="black" stroke="black" points="49.6836,-429.618 54.1325,-439.233 56.651,-428.942 49.6836,-429.618"/>
<text text-anchor="middle" x="51.6949" y="-272.982" font-family="Times New Roman,serif" font-size="14.00">a</text>
</g>
<!-- {S}&#45;&gt;{q1, S} -->
<g id="edge7" class="edge"><title>{S}&#45;&gt;{q1, S}</title>
<path fill="none" stroke="black" d="M66.9593,-440.684C71.9256,-427.364 78.1262,-410.733 83.9355,-395.152"/>
<polygon fill="black" stroke="black" points="87.2734,-396.218 87.4875,-385.626 80.7144,-393.773 87.2734,-396.218"/>
<text text-anchor="middle" x="83.6949" y="-409.975" font-family="Times New Roman,serif" font-size="14.00">a</text>
</g>
</g>
</svg>
