<?xml version="1.0" encoding="UTF-8" standalone="no"?>
<!DOCTYPE svg PUBLIC "-//W3C//DTD SVG 1.1//EN"
 "http://www.w3.org/Graphics/SVG/1.1/DTD/svg11.dtd">
<!-- Generated by graphviz version 2.38.0 (20140413.2041)
 -->
<!-- Title: %47 Pages: 1 -->
<svg width="98pt" height="441pt"
 viewBox="0.00 0.00 98.00 440.60" xmlns="http://www.w3.org/2000/svg" xmlns:xlink="http://www.w3.org/1999/xlink">
<g id="graph0" class="graph" transform="scale(1 1) rotate(0) translate(4 436.6)">
<title>%47</title>
<polygon fill="white" stroke="none" points="-4,4 -4,-436.6 94,-436.6 94,4 -4,4"/>
<!-- qi -->
<g id="node1" class="node"><title>qi</title>
<ellipse fill="black" stroke="black" cx="22" cy="-430.8" rx="1.8" ry="1.8"/>
</g>
<!-- X -->
<g id="node2" class="node"><title>X</title>
<ellipse fill="none" stroke="black" cx="22" cy="-374" rx="18" ry="18"/>
<text text-anchor="middle" x="22" y="-370.3" font-family="Times New Roman,serif" font-size="14.00">X</text>
</g>
<!-- qi&#45;&gt;X -->
<g id="edge1" class="edge"><title>qi&#45;&gt;X</title>
<path fill="none" stroke="black" d="M22,-428.849C22,-425.485 22,-413.725 22,-402.05"/>
<polygon fill="black" stroke="black" points="25.5001,-402.025 22,-392.025 18.5001,-402.025 25.5001,-402.025"/>
</g>
<!-- X&#45;&gt;X -->
<g id="edge2" class="edge"><title>X&#45;&gt;X</title>
<path fill="none" stroke="black" d="M39.7817,-377.236C49.3149,-377.786 58,-376.707 58,-374 58,-372.35 54.7749,-371.306 50.0981,-370.865"/>
<polygon fill="black" stroke="black" points="49.8156,-367.362 39.7817,-370.764 49.7469,-374.362 49.8156,-367.362"/>
<text text-anchor="middle" x="61.5" y="-370.3" font-family="Times New Roman,serif" font-size="14.00">1</text>
</g>
<!-- X&#45;&gt;X -->
<g id="edge3" class="edge"><title>X&#45;&gt;X</title>
<path fill="none" stroke="black" d="M39.4203,-379.316C56.791,-382.346 76,-380.574 76,-374 76,-368.71 63.5617,-366.529 49.652,-367.458"/>
<polygon fill="black" stroke="black" points="48.9328,-364.019 39.4203,-368.684 49.7657,-370.969 48.9328,-364.019"/>
<text text-anchor="middle" x="79.5" y="-370.3" font-family="Times New Roman,serif" font-size="14.00">0</text>
</g>
<!-- 0 -->
<g id="node3" class="node"><title>0</title>
<ellipse fill="none" stroke="black" cx="22" cy="-287" rx="18" ry="18"/>
<text text-anchor="middle" x="22" y="-283.3" font-family="Times New Roman,serif" font-size="14.00">0</text>
</g>
<!-- X&#45;&gt;0 -->
<g id="edge4" class="edge"><title>X&#45;&gt;0</title>
<path fill="none" stroke="black" d="M22,-355.799C22,-344.163 22,-328.548 22,-315.237"/>
<polygon fill="black" stroke="black" points="25.5001,-315.175 22,-305.175 18.5001,-315.175 25.5001,-315.175"/>
<text text-anchor="middle" x="25.5" y="-326.8" font-family="Times New Roman,serif" font-size="14.00">1</text>
</g>
<!-- 1 -->
<g id="node4" class="node"><title>1</title>
<ellipse fill="none" stroke="black" cx="22" cy="-200" rx="18" ry="18"/>
<text text-anchor="middle" x="22" y="-196.3" font-family="Times New Roman,serif" font-size="14.00">1</text>
</g>
<!-- 0&#45;&gt;1 -->
<g id="edge5" class="edge"><title>0&#45;&gt;1</title>
<path fill="none" stroke="black" d="M15.3664,-270.258C13.201,-264.332 11.0772,-257.463 10,-251 8.65302,-242.918 9.81432,-234.204 11.8585,-226.351"/>
<polygon fill="black" stroke="black" points="15.2489,-227.237 14.9176,-216.647 8.57279,-225.132 15.2489,-227.237"/>
<text text-anchor="middle" x="13.5" y="-239.8" font-family="Times New Roman,serif" font-size="14.00">1</text>
</g>
<!-- 0&#45;&gt;1 -->
<g id="edge6" class="edge"><title>0&#45;&gt;1</title>
<path fill="none" stroke="black" d="M22,-268.799C22,-257.163 22,-241.548 22,-228.237"/>
<polygon fill="black" stroke="black" points="25.5001,-228.175 22,-218.175 18.5001,-228.175 25.5001,-228.175"/>
<text text-anchor="middle" x="25.5" y="-239.8" font-family="Times New Roman,serif" font-size="14.00">0</text>
</g>
<!-- 2 -->
<g id="node5" class="node"><title>2</title>
<ellipse fill="none" stroke="black" cx="22" cy="-113" rx="18" ry="18"/>
<text text-anchor="middle" x="22" y="-109.3" font-family="Times New Roman,serif" font-size="14.00">2</text>
</g>
<!-- 1&#45;&gt;2 -->
<g id="edge7" class="edge"><title>1&#45;&gt;2</title>
<path fill="none" stroke="black" d="M15.3664,-183.258C13.201,-177.332 11.0772,-170.463 10,-164 8.65302,-155.918 9.81432,-147.204 11.8585,-139.351"/>
<polygon fill="black" stroke="black" points="15.2489,-140.237 14.9176,-129.647 8.57279,-138.132 15.2489,-140.237"/>
<text text-anchor="middle" x="13.5" y="-152.8" font-family="Times New Roman,serif" font-size="14.00">1</text>
</g>
<!-- 1&#45;&gt;2 -->
<g id="edge8" class="edge"><title>1&#45;&gt;2</title>
<path fill="none" stroke="black" d="M22,-181.799C22,-170.163 22,-154.548 22,-141.237"/>
<polygon fill="black" stroke="black" points="25.5001,-141.175 22,-131.175 18.5001,-141.175 25.5001,-141.175"/>
<text text-anchor="middle" x="25.5" y="-152.8" font-family="Times New Roman,serif" font-size="14.00">0</text>
</g>
<!-- 3 -->
<g id="node6" class="node"><title>3</title>
<ellipse fill="none" stroke="black" cx="22" cy="-22" rx="18" ry="18"/>
<ellipse fill="none" stroke="black" cx="22" cy="-22" rx="22" ry="22"/>
<text text-anchor="middle" x="22" y="-18.3" font-family="Times New Roman,serif" font-size="14.00">3</text>
</g>
<!-- 2&#45;&gt;3 -->
<g id="edge9" class="edge"><title>2&#45;&gt;3</title>
<path fill="none" stroke="black" d="M15.3664,-96.2577C13.201,-90.3321 11.0772,-83.4629 10,-77 8.67168,-69.0301 9.51253,-60.4663 11.2402,-52.5599"/>
<polygon fill="black" stroke="black" points="14.6882,-53.2164 13.9145,-42.6499 7.92995,-51.3926 14.6882,-53.2164"/>
<text text-anchor="middle" x="13.5" y="-65.8" font-family="Times New Roman,serif" font-size="14.00">1</text>
</g>
<!-- 2&#45;&gt;3 -->
<g id="edge10" class="edge"><title>2&#45;&gt;3</title>
<path fill="none" stroke="black" d="M22,-94.8399C22,-83.4407 22,-68.1336 22,-54.5781"/>
<polygon fill="black" stroke="black" points="25.5001,-54.1905 22,-44.1905 18.5001,-54.1906 25.5001,-54.1905"/>
<text text-anchor="middle" x="25.5" y="-65.8" font-family="Times New Roman,serif" font-size="14.00">0</text>
</g>
</g>
</svg>
