<?xml version="1.0" encoding="UTF-8" standalone="no"?>
<!DOCTYPE svg PUBLIC "-//W3C//DTD SVG 1.1//EN"
 "http://www.w3.org/Graphics/SVG/1.1/DTD/svg11.dtd">
<!-- Generated by graphviz version 2.38.0 (20140413.2041)
 -->
<!-- Title: %43 Pages: 1 -->
<svg width="341pt" height="1167pt"
 viewBox="0.00 0.00 341.19 1166.94" xmlns="http://www.w3.org/2000/svg" xmlns:xlink="http://www.w3.org/1999/xlink">
<g id="graph0" class="graph" transform="scale(1 1) rotate(0) translate(4 1162.94)">
<title>%43</title>
<polygon fill="white" stroke="none" points="-4,4 -4,-1162.94 337.194,-1162.94 337.194,4 -4,4"/>
<!-- __init -->
<g id="node1" class="node"><title>__init</title>
<ellipse fill="black" stroke="black" cx="282.196" cy="-1157.14" rx="1.8" ry="1.8"/>
</g>
<!-- {X} -->
<g id="node2" class="node"><title>{X}</title>
<ellipse fill="none" stroke="black" cx="282.196" cy="-1092.34" rx="25.9954" ry="25.9954"/>
<text text-anchor="middle" x="282.196" y="-1088.64" font-family="Times New Roman,serif" font-size="14.00">{X}</text>
</g>
<!-- __init&#45;&gt;{X} -->
<g id="edge1" class="edge"><title>__init&#45;&gt;{X}</title>
<path fill="none" stroke="black" d="M282.196,-1155.05C282.196,-1151.59 282.196,-1140.37 282.196,-1128.43"/>
<polygon fill="black" stroke="black" points="285.696,-1128.39 282.196,-1118.39 278.696,-1128.39 285.696,-1128.39"/>
</g>
<!-- {X}&#45;&gt;{X} -->
<g id="edge2" class="edge"><title>{X}&#45;&gt;{X}</title>
<path fill="none" stroke="black" d="M307.073,-1100.52C317.421,-1101.08 326.194,-1098.36 326.194,-1092.34 326.194,-1088.49 322.594,-1085.98 317.285,-1084.83"/>
<polygon fill="black" stroke="black" points="317.28,-1081.32 307.073,-1084.16 316.824,-1088.31 317.28,-1081.32"/>
<text text-anchor="middle" x="329.694" y="-1088.64" font-family="Times New Roman,serif" font-size="14.00">0</text>
</g>
<!-- {0, X} -->
<g id="node3" class="node"><title>{0, X}</title>
<ellipse fill="none" stroke="black" cx="228.196" cy="-980.247" rx="35.194" ry="35.194"/>
<text text-anchor="middle" x="228.196" y="-976.547" font-family="Times New Roman,serif" font-size="14.00">{0, X}</text>
</g>
<!-- {X}&#45;&gt;{0, X} -->
<g id="edge3" class="edge"><title>{X}&#45;&gt;{0, X}</title>
<path fill="none" stroke="black" d="M271.138,-1068.8C264.432,-1055.12 255.681,-1037.28 247.83,-1021.28"/>
<polygon fill="black" stroke="black" points="250.88,-1019.55 243.333,-1012.11 244.595,-1022.63 250.88,-1019.55"/>
<text text-anchor="middle" x="262.696" y="-1037.14" font-family="Times New Roman,serif" font-size="14.00">1</text>
</g>
<!-- {1, X} -->
<g id="node4" class="node"><title>{1, X}</title>
<ellipse fill="none" stroke="black" cx="198.196" cy="-859.053" rx="35.194" ry="35.194"/>
<text text-anchor="middle" x="198.196" y="-855.353" font-family="Times New Roman,serif" font-size="14.00">{1, X}</text>
</g>
<!-- {0, X}&#45;&gt;{1, X} -->
<g id="edge4" class="edge"><title>{0, X}&#45;&gt;{1, X}</title>
<path fill="none" stroke="black" d="M219.839,-946.045C216.519,-932.852 212.654,-917.498 209.117,-903.444"/>
<polygon fill="black" stroke="black" points="212.447,-902.334 206.612,-893.491 205.659,-904.042 212.447,-902.334"/>
<text text-anchor="middle" x="217.696" y="-915.95" font-family="Times New Roman,serif" font-size="14.00">0</text>
</g>
<!-- {0, 1, X} -->
<g id="node5" class="node"><title>{0, 1, X}</title>
<ellipse fill="none" stroke="black" cx="44.1961" cy="-460.174" rx="44.393" ry="44.393"/>
<text text-anchor="middle" x="44.1961" y="-456.474" font-family="Times New Roman,serif" font-size="14.00">{0, 1, X}</text>
</g>
<!-- {0, X}&#45;&gt;{0, 1, X} -->
<g id="edge5" class="edge"><title>{0, X}&#45;&gt;{0, 1, X}</title>
<path fill="none" stroke="black" d="M193.794,-971.571C144.12,-958.224 58.1961,-925.656 58.1961,-860.053 58.1961,-860.053 58.1961,-860.053 58.1961,-602.566 58.1961,-573.277 55.1843,-540.74 51.9545,-514.269"/>
<polygon fill="black" stroke="black" points="55.3916,-513.551 50.6633,-504.07 48.4471,-514.43 55.3916,-513.551"/>
<text text-anchor="middle" x="61.6961" y="-734.159" font-family="Times New Roman,serif" font-size="14.00">1</text>
</g>
<!-- {1, X}&#45;&gt;{0, X} -->
<g id="edge7" class="edge"><title>{1, X}&#45;&gt;{0, X}</title>
<path fill="none" stroke="black" d="M196.887,-894.278C197.231,-904.955 198.393,-916.674 201.196,-927.15 202.383,-931.588 203.99,-936.078 205.832,-940.466"/>
<polygon fill="black" stroke="black" points="202.794,-942.236 210.167,-949.845 209.148,-939.299 202.794,-942.236"/>
<text text-anchor="middle" x="204.696" y="-915.95" font-family="Times New Roman,serif" font-size="14.00">1</text>
</g>
<!-- {2, X} -->
<g id="node6" class="node"><title>{2, X}</title>
<ellipse fill="none" stroke="black" cx="198.196" cy="-737.859" rx="35.194" ry="35.194"/>
<text text-anchor="middle" x="198.196" y="-734.159" font-family="Times New Roman,serif" font-size="14.00">{2, X}</text>
</g>
<!-- {1, X}&#45;&gt;{2, X} -->
<g id="edge6" class="edge"><title>{1, X}&#45;&gt;{2, X}</title>
<path fill="none" stroke="black" d="M198.196,-823.897C198.196,-811.179 198.196,-796.558 198.196,-783.067"/>
<polygon fill="black" stroke="black" points="201.696,-783.02 198.196,-773.02 194.696,-783.02 201.696,-783.02"/>
<text text-anchor="middle" x="201.696" y="-794.756" font-family="Times New Roman,serif" font-size="14.00">0</text>
</g>
<!-- {0, 1, X}&#45;&gt;{0, 1, X} -->
<g id="edge9" class="edge"><title>{0, 1, X}&#45;&gt;{0, 1, X}</title>
<path fill="none" stroke="black" d="M86.6382,-472.812C97.8787,-472.09 106.392,-467.877 106.392,-460.174 106.392,-454.999 102.549,-451.399 96.6178,-449.375"/>
<polygon fill="black" stroke="black" points="97.1068,-445.906 86.6382,-447.536 95.8387,-452.79 97.1068,-445.906"/>
<text text-anchor="middle" x="109.892" y="-456.474" font-family="Times New Roman,serif" font-size="14.00">1</text>
</g>
<!-- {1, 2, X} -->
<g id="node7" class="node"><title>{1, 2, X}</title>
<ellipse fill="none" stroke="black" cx="112.196" cy="-320.782" rx="44.393" ry="44.393"/>
<text text-anchor="middle" x="112.196" y="-317.082" font-family="Times New Roman,serif" font-size="14.00">{1, 2, X}</text>
</g>
<!-- {0, 1, X}&#45;&gt;{1, 2, X} -->
<g id="edge8" class="edge"><title>{0, 1, X}&#45;&gt;{1, 2, X}</title>
<path fill="none" stroke="black" d="M63.5003,-420.171C71.1809,-404.652 80.1005,-386.63 88.1913,-370.283"/>
<polygon fill="black" stroke="black" points="91.5446,-371.398 92.8436,-360.883 85.271,-368.293 91.5446,-371.398"/>
<text text-anchor="middle" x="86.6961" y="-386.778" font-family="Times New Roman,serif" font-size="14.00">0</text>
</g>
<!-- {3, X} -->
<g id="node8" class="node"><title>{3, X}</title>
<ellipse fill="none" stroke="black" cx="242.196" cy="-39.0969" rx="35.1841" ry="35.1841"/>
<ellipse fill="none" stroke="black" cx="242.196" cy="-39.0969" rx="39.194" ry="39.194"/>
<text text-anchor="middle" x="242.196" y="-35.3969" font-family="Times New Roman,serif" font-size="14.00">{3, X}</text>
</g>
<!-- {2, X}&#45;&gt;{3, X} -->
<g id="edge10" class="edge"><title>{2, X}&#45;&gt;{3, X}</title>
<path fill="none" stroke="black" d="M207.933,-704.02C214.953,-677.446 223.196,-638.926 223.196,-604.566 223.196,-604.566 223.196,-604.566 223.196,-176.39 223.196,-146.651 227.688,-113.61 232.304,-87.5078"/>
<polygon fill="black" stroke="black" points="235.777,-87.9714 234.138,-77.5041 228.892,-86.7088 235.777,-87.9714"/>
<text text-anchor="middle" x="226.696" y="-386.778" font-family="Times New Roman,serif" font-size="14.00">0</text>
</g>
<!-- {0, 3, X} -->
<g id="node9" class="node"><title>{0, 3, X}</title>
<ellipse fill="none" stroke="black" cx="147.196" cy="-603.566" rx="44.3766" ry="44.3766"/>
<ellipse fill="none" stroke="black" cx="147.196" cy="-603.566" rx="48.393" ry="48.393"/>
<text text-anchor="middle" x="147.196" y="-599.866" font-family="Times New Roman,serif" font-size="14.00">{0, 3, X}</text>
</g>
<!-- {2, X}&#45;&gt;{0, 3, X} -->
<g id="edge11" class="edge"><title>{2, X}&#45;&gt;{0, 3, X}</title>
<path fill="none" stroke="black" d="M185.85,-704.835C180.48,-690.903 174.037,-674.19 167.965,-658.44"/>
<polygon fill="black" stroke="black" points="171.108,-656.862 164.245,-648.79 164.576,-659.38 171.108,-656.862"/>
<text text-anchor="middle" x="180.696" y="-673.562" font-family="Times New Roman,serif" font-size="14.00">1</text>
</g>
<!-- {1, 2, X}&#45;&gt;{0, 3, X} -->
<g id="edge13" class="edge"><title>{1, 2, X}&#45;&gt;{0, 3, X}</title>
<path fill="none" stroke="black" d="M117.556,-364.782C123.59,-413.187 133.419,-492.042 140.089,-545.554"/>
<polygon fill="black" stroke="black" points="136.628,-546.079 141.338,-555.569 143.574,-545.213 136.628,-546.079"/>
<text text-anchor="middle" x="138.696" y="-456.474" font-family="Times New Roman,serif" font-size="14.00">1</text>
</g>
<!-- {2, 3, X} -->
<g id="node10" class="node"><title>{2, 3, X}</title>
<ellipse fill="none" stroke="black" cx="147.196" cy="-177.39" rx="44.3766" ry="44.3766"/>
<ellipse fill="none" stroke="black" cx="147.196" cy="-177.39" rx="48.393" ry="48.393"/>
<text text-anchor="middle" x="147.196" y="-173.69" font-family="Times New Roman,serif" font-size="14.00">{2, 3, X}</text>
</g>
<!-- {1, 2, X}&#45;&gt;{2, 3, X} -->
<g id="edge12" class="edge"><title>{1, 2, X}&#45;&gt;{2, 3, X}</title>
<path fill="none" stroke="black" d="M122.602,-277.743C125.975,-264.118 129.771,-248.783 133.353,-234.313"/>
<polygon fill="black" stroke="black" points="136.785,-235.013 135.791,-224.465 129.99,-233.331 136.785,-235.013"/>
<text text-anchor="middle" x="134.696" y="-247.386" font-family="Times New Roman,serif" font-size="14.00">0</text>
</g>
<!-- {3, X}&#45;&gt;{X} -->
<g id="edge14" class="edge"><title>{3, X}&#45;&gt;{X}</title>
<path fill="none" stroke="black" d="M266.031,-70.0956C284.582,-96.4994 307.196,-136.805 307.196,-176.39 307.196,-981.247 307.196,-981.247 307.196,-981.247 307.196,-1007.47 300.366,-1036.36 293.846,-1057.96"/>
<polygon fill="black" stroke="black" points="290.464,-1057.05 290.8,-1067.64 297.141,-1059.15 290.464,-1057.05"/>
<text text-anchor="middle" x="310.696" y="-599.866" font-family="Times New Roman,serif" font-size="14.00">0</text>
</g>
<!-- {3, X}&#45;&gt;{0, X} -->
<g id="edge15" class="edge"><title>{3, X}&#45;&gt;{0, X}</title>
<path fill="none" stroke="black" d="M250.254,-77.5041C255.432,-104.779 261.196,-142.704 261.196,-176.39 261.196,-860.053 261.196,-860.053 261.196,-860.053 261.196,-886.613 253.492,-915.334 245.528,-937.927"/>
<polygon fill="black" stroke="black" points="242.164,-936.934 242,-947.527 248.735,-939.348 242.164,-936.934"/>
<text text-anchor="middle" x="264.696" y="-526.17" font-family="Times New Roman,serif" font-size="14.00">1</text>
</g>
<!-- {0, 3, X}&#45;&gt;{1, X} -->
<g id="edge16" class="edge"><title>{0, 3, X}&#45;&gt;{1, X}</title>
<path fill="none" stroke="black" d="M140.575,-651.564C137.328,-685.847 136.164,-733.088 147.196,-772.956 152.027,-790.415 161.496,-807.891 170.978,-822.424"/>
<polygon fill="black" stroke="black" points="168.33,-824.756 176.841,-831.066 174.123,-820.825 168.33,-824.756"/>
<text text-anchor="middle" x="150.696" y="-734.159" font-family="Times New Roman,serif" font-size="14.00">0</text>
</g>
<!-- {0, 3, X}&#45;&gt;{0, 1, X} -->
<g id="edge17" class="edge"><title>{0, 3, X}&#45;&gt;{0, 1, X}</title>
<path fill="none" stroke="black" d="M119.051,-563.93C105.664,-545.554 89.6072,-523.512 75.8031,-504.562"/>
<polygon fill="black" stroke="black" points="78.5558,-502.397 69.8388,-496.375 72.8979,-506.519 78.5558,-502.397"/>
<text text-anchor="middle" x="102.696" y="-526.17" font-family="Times New Roman,serif" font-size="14.00">1</text>
</g>
<!-- {2, 3, X}&#45;&gt;{3, X} -->
<g id="edge18" class="edge"><title>{2, 3, X}&#45;&gt;{3, X}</title>
<path fill="none" stroke="black" d="M173.909,-137.133C182.851,-124.073 192.908,-109.475 202.196,-96.1938 205.885,-90.919 209.79,-85.3831 213.659,-79.9289"/>
<polygon fill="black" stroke="black" points="216.727,-81.6527 219.67,-71.4746 211.022,-77.5965 216.727,-81.6527"/>
<text text-anchor="middle" x="205.696" y="-99.9938" font-family="Times New Roman,serif" font-size="14.00">0</text>
</g>
<!-- {2, 3, X}&#45;&gt;{0, 3, X} -->
<g id="edge19" class="edge"><title>{2, 3, X}&#45;&gt;{0, 3, X}</title>
<path fill="none" stroke="black" d="M157.45,-224.607C160.599,-240.941 163.643,-259.498 165.196,-276.586 173.756,-370.754 163.515,-480.622 155.343,-545.739"/>
<polygon fill="black" stroke="black" points="151.853,-545.432 154.052,-555.796 158.796,-546.323 151.853,-545.432"/>
<text text-anchor="middle" x="170.696" y="-386.778" font-family="Times New Roman,serif" font-size="14.00">1</text>
</g>
</g>
</svg>
